<svg xmlns="http://www.w3.org/2000/svg" xmlns:xlink="http://www.w3.org/1999/xlink" width="771.733" height="723.424" viewBox="0 0 204.188 191.406"><defs><linearGradient id="c"><stop offset="0" style="stop-color:#c6cdd0;stop-opacity:1"/><stop offset="1" style="stop-color:#f8fafb;stop-opacity:1"/></linearGradient><linearGradient id="b"><stop offset="0" style="stop-color:#0967b6;stop-opacity:1"/><stop offset="1" style="stop-color:#0f4d8f;stop-opacity:1"/></linearGradient><linearGradient id="a"><stop offset="0" style="stop-color:#818a92;stop-opacity:1"/><stop offset="1" style="stop-color:#65717b;stop-opacity:1"/></linearGradient><linearGradient xlink:href="#a" id="d" x1="523.259" x2="523.259" y1="396.99" y2="1078.843" gradientUnits="userSpaceOnUse"/><linearGradient xlink:href="#b" id="f" x1="66.798" x2="119.183" y1="317.889" y2="367.868" gradientUnits="userSpaceOnUse"/><linearGradient xlink:href="#c" id="e" x1="90.853" x2="90.853" y1="296.774" y2="390.586" gradientUnits="userSpaceOnUse"/></defs><path d="M895.637 348.351c-36.144-2.72-16.122 57.674-124.22 74.137-93.539-.867-97.838-52.802-119.388-69.08-14.71-11.11-45.28 2.755-86.968 27.904-38.398 23.908-49.476 36.853-50.96 46.983-2.465 16.806 15.266 24.26 18.79 55.231 1.885 16.58 6.185 39.901-13.35 75.005-22.672 40.737-42.07 49.103-59.344 57.25-53.705 25.325-75.453-42.355-82.636 102.4-6.265 126.253 26.529 54.204 82.522 80.982 15.08 7.211 35.12 12.221 52.604 41.43 98.381 164.362-98.079 104.522 62.862 208.403 105.45 66.338 88.341-53.2 173.576-55.816 191.53-3.02 41.476 137.2 211.91 49.761 31.152-13.809 47.848-30.747 54.462-41.912 5.687-9.599 3.657-13.218-.01-26.678-7.817-28.725-27.752-72.713-8.43-106.61 93.15-155.682 131.98 30.019 141.474-161.669-.723-38.415-2.083-63.464-11.704-73.115-9.957-9.986-28.474-3.983-46.968-9.552-16.62-5.005-47.674-11.647-61.808-35.201-98.288-165.278 85.742-132.156-77.508-212.946-33.704-16.68-44.585-26.13-54.91-26.907z" style="fill:url(#d);fill-opacity:1;fill-rule:evenodd;stroke:none;stroke-width:135.081;stroke-miterlimit:4;stroke-dasharray:none;stroke-opacity:1" transform="translate(-99.695 -92.144) scale(.26458)"/><path d="M95.59 292.043c-27.726 0-50.555 22.829-50.555 50.555 0 27.725 22.83 50.554 50.555 50.554s50.555-22.829 50.555-50.554c0-27.726-22.83-50.555-50.555-50.555zm0 32.885c9.954 0 17.67 7.716 17.67 17.67 0 9.953-7.716 17.67-17.67 17.67s-17.67-7.717-17.67-17.67c0-9.954 7.716-17.67 17.67-17.67z" style="color:#000;font-style:normal;font-variant:normal;font-weight:400;font-stretch:normal;font-size:medium;line-height:normal;font-family:sans-serif;font-variant-ligatures:normal;font-variant-position:normal;font-variant-caps:normal;font-variant-numeric:normal;font-variant-alternates:normal;font-variant-east-asian:normal;font-feature-settings:normal;font-variation-settings:normal;text-indent:0;text-align:start;text-decoration:none;text-decoration-line:none;text-decoration-style:solid;text-decoration-color:#000;letter-spacing:normal;word-spacing:normal;text-transform:none;writing-mode:lr-tb;direction:ltr;text-orientation:mixed;dominant-baseline:auto;baseline-shift:baseline;text-anchor:start;white-space:normal;shape-padding:0;shape-margin:0;inline-size:0;clip-rule:nonzero;display:inline;overflow:visible;visibility:visible;isolation:auto;mix-blend-mode:normal;color-interpolation:sRGB;color-interpolation-filters:linearRGB;solid-color:#000;solid-opacity:1;vector-effect:none;fill:url(#e);fill-opacity:1;fill-rule:evenodd;stroke:none;stroke-linecap:butt;stroke-linejoin:miter;stroke-miterlimit:4;stroke-dasharray:none;stroke-dashoffset:0;stroke-opacity:1;color-rendering:auto;image-rendering:auto;shape-rendering:auto;text-rendering:auto;enable-background:accumulate;stop-color:#000" transform="translate(7.5 -247.266)"/><path d="M129.703 342.598c0 18.84-15.273 34.112-34.113 34.112s-34.112-15.273-34.112-34.112c0-18.84 15.272-34.113 34.112-34.113 18.84 0 34.113 15.273 34.113 34.113z" style="color:#000;font-style:normal;font-variant:normal;font-weight:400;font-stretch:normal;font-size:medium;line-height:normal;font-family:sans-serif;font-variant-ligatures:normal;font-variant-position:normal;font-variant-caps:normal;font-variant-numeric:normal;font-variant-alternates:normal;font-variant-east-asian:normal;font-feature-settings:normal;font-variation-settings:normal;text-indent:0;text-align:start;text-decoration:none;text-decoration-line:none;text-decoration-style:solid;text-decoration-color:#000;letter-spacing:normal;word-spacing:normal;text-transform:none;writing-mode:lr-tb;direction:ltr;text-orientation:mixed;dominant-baseline:auto;baseline-shift:baseline;text-anchor:start;white-space:normal;shape-padding:0;shape-margin:0;inline-size:0;clip-rule:nonzero;display:inline;overflow:visible;visibility:visible;isolation:auto;mix-blend-mode:normal;color-interpolation:sRGB;color-interpolation-filters:linearRGB;solid-color:#000;solid-opacity:1;vector-effect:none;fill:url(#f);fill-opacity:1;fill-rule:evenodd;stroke:none;stroke-width:32.884;stroke-linecap:butt;stroke-linejoin:miter;stroke-miterlimit:4;stroke-dasharray:none;stroke-dashoffset:0;stroke-opacity:1;color-rendering:auto;image-rendering:auto;shape-rendering:auto;text-rendering:auto;enable-background:accumulate;stop-color:#000" transform="translate(7.5 -247.266)"/><circle cx="103.832" cy="94.964" r="61.955" style="fill:#b3b3b3;stroke:#000;stroke-width:4"/></svg>